# xmcd
#
# Track frame offsets:
#	150
#	15094
#	29459
#	41971
#	52532
#	66257
#	84270
#	100418
#	111989
#	126170
#	141365
#	154647
#	166591
#	176299
#	188598
#	200689
#	214669
#	225921
#	239473
#	248302
#	262106
#	274346
#
# Disc length: 3822 seconds
#
# Revision: 2
# Processed by: cddbd v1.5.2PL0 Copyright (c) Steve Scherf et al.
# Submitted via: audiograbber 1.83.01
#
DISCID=1f0eec16
DTITLE=Sampler Country - A country tribute to Elvis
DYEAR=2004
DGENRE=Country
TTITLE0=Campbell, Glen - Your cheatin' heart
TTITLE1=Spears, Billie Jo and Del Reeves - Suspicious minds
TTITLE2=Gentry, Bobbie - In the ghetto
TTITLE3=McLean, Don - Cryin' in the chapel
TTITLE4=Nelson, Willie - Funny how time slips away
TTITLE5=Stewart, Wynn - For the good times
TTITLE6=Spears, Billie Jo - Always on my mind
TTITLE7=Withman, Slim - Fool such as I
TTITLE8=Jackson, Wanda - Just call me lonesome
TTITLE9=Highwaymen - True love travels on gravel road
TTITLE10=Campbell, Glen and Tennessee Ernie Ford - There goes my everything
TTITLE11=Jones, George - Peace in the valley
TTITLE12=Jim And Jesse - The promised land
TTITLE13=Hawkins, Ronnie - Blue moon of Kentucky
TTITLE14=Rogers, Roy - He'll have to go
TTITLE15=Husky, Ferlin - I'm so lonesome, I could cry
TTITLE16=Campbell, Glen - Tomorrow never comes
TTITLE17=Newton-John, Olivia - Let me be there
TTITLE18=Jordanaires, The - Don't be cruel
TTITLE19=Sheppard, Jean - It keeps right on a hurtin'
TTITLE20=Darrell, Johnny - Green green grass of home
TTITLE21=Payne, Leon - I love you because
EXTD=
EXTT0=
EXTT1=
EXTT2=
EXTT3=
EXTT4=
EXTT5=
EXTT6=
EXTT7=
EXTT8=
EXTT9=
EXTT10=
EXTT11=
EXTT12=
EXTT13=
EXTT14=
EXTT15=
EXTT16=
EXTT17=
EXTT18=
EXTT19=
EXTT20=
EXTT21=
PLAYORDER=
